<?xml version="1.0" encoding="UTF-8" standalone="no"?><svg xmlns="http://www.w3.org/2000/svg" xmlns:xlink="http://www.w3.org/1999/xlink" height="832px" preserveAspectRatio="none" viewBox="0 0 920 812" width="960px"><defs><g id="disk0"><ellipse fill="rgb(184,134,11)" rx="11" ry="7"/><ellipse fill="rgb(255,255,255)" rx="5" ry="6" stroke="rgb(192,192,192)" stroke-width="1"/><text fill="rgb(0,0,0)" font-size="13" font-weight="bold" text-anchor="middle" transform="translate(1,4) ">0</text></g><g id="disk1"><ellipse fill="rgb(65,105,225)" rx="13" ry="7"/><ellipse fill="rgb(255,255,255)" rx="5" ry="6" stroke="rgb(192,192,192)" stroke-width="1"/><text fill="rgb(0,0,0)" font-size="13" font-weight="bold" text-anchor="middle" transform="translate(1,4) ">1</text></g><g id="disk2"><ellipse fill="rgb(34,139,34)" rx="15" ry="7"/><ellipse fill="rgb(255,255,255)" rx="5" ry="6" stroke="rgb(192,192,192)" stroke-width="1"/><text fill="rgb(0,0,0)" font-size="13" font-weight="bold" text-anchor="middle" transform="translate(1,4) ">2</text></g><rect fill="rgb(184,134,11)" height="10" id="side0" rx="3" ry="3" transform="translate(-60,-5) " width="120"/><rect fill="rgb(65,105,225)" height="10" id="side1" rx="3" ry="3" transform="translate(-60,-5) " width="120"/><rect fill="rgb(34,139,34)" height="10" id="side2" rx="3" ry="3" transform="translate(-60,-5) " width="120"/><g id="tower"><rect fill="rgb(192,192,192)" height="79" opacity="0.15" rx="4" ry="4" transform="translate(-51,-67) " width="102"/><rect fill="rgb(255,255,255)" height="75" opacity="0.5" rx="4" ry="4" transform="translate(-48,-65) " width="96"/><rect fill="rgb(0,0,0)" height="60" rx="3" ry="3" transform="translate(-33,-60) " width="6"/><rect fill="rgb(0,0,0)" height="60" rx="3" ry="3" transform="translate(-3,-60) " width="6"/><rect fill="rgb(0,0,0)" height="60" rx="3" ry="3" transform="translate(27,-60) " width="6"/><rect fill="rgb(0,0,0)" height="10" rx="3" ry="3" transform="translate(-45,-5) " width="90"/></g></defs><g font-family="Arial" transform="translate(40,772) "><g><g transform="translate(420,0) "><use xlink:href="#side2"/><text fill="rgb(0,0,0)" font-size="14" font-weight="bold" text-anchor="middle" transform="translate(0,-8) ">2 0-&gt;2</text></g><g transform="translate(630,-364) rotate(60) "><use xlink:href="#side2"/><text fill="rgb(0,0,0)" font-size="14" font-weight="bold" text-anchor="middle" transform="translate(0,-8) ">2 1-&gt;2</text></g><g transform="translate(210,-364) rotate(-60) "><use xlink:href="#side2"/><text fill="rgb(0,0,0)" font-size="14" font-weight="bold" text-anchor="middle" transform="translate(0,-8) ">2 0-&gt;1</text></g><g><g transform="translate(180,0) "><use xlink:href="#side1"/><text fill="rgb(0,0,0)" font-size="14" font-weight="bold" text-anchor="middle" transform="translate(0,-8) ">1 0-&gt;1</text></g><g transform="translate(270,-156) rotate(60) "><use xlink:href="#side1"/><text fill="rgb(0,0,0)" font-size="14" font-weight="bold" text-anchor="middle" transform="translate(0,-8) ">1 2-&gt;1</text></g><g transform="translate(90,-156) rotate(-60) "><use xlink:href="#side1"/><text fill="rgb(0,0,0)" font-size="14" font-weight="bold" text-anchor="middle" transform="translate(0,-8) ">1 0-&gt;2</text></g><g><g transform="translate(60,0) "><use xlink:href="#side0"/><text fill="rgb(0,0,0)" font-size="14" font-weight="bold" text-anchor="middle" transform="translate(0,-8) ">0 0-&gt;2</text></g><g transform="translate(90,-52) rotate(60) "><use xlink:href="#side0"/><text fill="rgb(0,0,0)" font-size="14" font-weight="bold" text-anchor="middle" transform="translate(0,-8) ">0 1-&gt;2</text></g><g transform="translate(30,-52) rotate(-60) "><use xlink:href="#side0"/><text fill="rgb(0,0,0)" font-size="14" font-weight="bold" text-anchor="middle" transform="translate(0,-8) ">0 0-&gt;1</text></g><g scale=".6" transform="translate(0,20) scale(.6) "><use xlink:href="#tower"/><use transform="translate(-30,-12) " xlink:href="#disk2"/><use transform="translate(-30,-25) " xlink:href="#disk1"/><use transform="translate(-30,-38) " xlink:href="#disk0"/></g><g scale=".6" transform="translate(60,-95) scale(.6) "><use xlink:href="#tower"/><use transform="translate(-30,-12) " xlink:href="#disk2"/><use transform="translate(-30,-25) " xlink:href="#disk1"/><use transform="translate(0,-12) " xlink:href="#disk0"/></g><g scale=".6" transform="translate(120,20) scale(.6) "><use xlink:href="#tower"/><use transform="translate(-30,-12) " xlink:href="#disk2"/><use transform="translate(-30,-25) " xlink:href="#disk1"/><use transform="translate(30,-12) " xlink:href="#disk0"/></g></g><g transform="translate(120,-208) "><g transform="translate(60,0) "><use xlink:href="#side0"/><text fill="rgb(0,0,0)" font-size="14" font-weight="bold" text-anchor="middle" transform="translate(0,-8) ">0 1-&gt;0</text></g><g transform="translate(90,-52) rotate(60) "><use xlink:href="#side0"/><text fill="rgb(0,0,0)" font-size="14" font-weight="bold" text-anchor="middle" transform="translate(0,-8) ">0 2-&gt;0</text></g><g transform="translate(30,-52) rotate(-60) "><use xlink:href="#side0"/><text fill="rgb(0,0,0)" font-size="14" font-weight="bold" text-anchor="middle" transform="translate(0,-8) ">0 1-&gt;2</text></g><g scale=".6" transform="translate(0,20) scale(.6) "><use xlink:href="#tower"/><use transform="translate(-30,-12) " xlink:href="#disk2"/><use transform="translate(0,-12) " xlink:href="#disk0"/><use transform="translate(30,-12) " xlink:href="#disk1"/></g><g scale=".6" transform="translate(60,-95) scale(.6) "><use xlink:href="#tower"/><use transform="translate(-30,-12) " xlink:href="#disk2"/><use transform="translate(30,-12) " xlink:href="#disk1"/><use transform="translate(30,-25) " xlink:href="#disk0"/></g><g scale=".6" transform="translate(120,20) scale(.6) "><use xlink:href="#tower"/><use transform="translate(-30,-12) " xlink:href="#disk2"/><use transform="translate(-30,-25) " xlink:href="#disk0"/><use transform="translate(30,-12) " xlink:href="#disk1"/></g></g><g transform="translate(240,0) "><g transform="translate(60,0) "><use xlink:href="#side0"/><text fill="rgb(0,0,0)" font-size="14" font-weight="bold" text-anchor="middle" transform="translate(0,-8) ">0 2-&gt;1</text></g><g transform="translate(90,-52) rotate(60) "><use xlink:href="#side0"/><text fill="rgb(0,0,0)" font-size="14" font-weight="bold" text-anchor="middle" transform="translate(0,-8) ">0 0-&gt;1</text></g><g transform="translate(30,-52) rotate(-60) "><use xlink:href="#side0"/><text fill="rgb(0,0,0)" font-size="14" font-weight="bold" text-anchor="middle" transform="translate(0,-8) ">0 2-&gt;0</text></g><g scale=".6" transform="translate(0,20) scale(.6) "><use xlink:href="#tower"/><use transform="translate(-30,-12) " xlink:href="#disk2"/><use transform="translate(0,-12) " xlink:href="#disk1"/><use transform="translate(30,-12) " xlink:href="#disk0"/></g><g scale=".6" transform="translate(60,-95) scale(.6) "><use xlink:href="#tower"/><use transform="translate(-30,-12) " xlink:href="#disk2"/><use transform="translate(-30,-25) " xlink:href="#disk0"/><use transform="translate(0,-12) " xlink:href="#disk1"/></g><g scale=".6" transform="translate(120,20) scale(.6) "><use xlink:href="#tower"/><use transform="translate(-30,-12) " xlink:href="#disk2"/><use transform="translate(0,-12) " xlink:href="#disk1"/><use transform="translate(0,-25) " xlink:href="#disk0"/></g></g></g><g transform="translate(240,-416) "><g transform="translate(180,0) "><use xlink:href="#side1"/><text fill="rgb(0,0,0)" font-size="14" font-weight="bold" text-anchor="middle" transform="translate(0,-8) ">1 2-&gt;0</text></g><g transform="translate(270,-156) rotate(60) "><use xlink:href="#side1"/><text fill="rgb(0,0,0)" font-size="14" font-weight="bold" text-anchor="middle" transform="translate(0,-8) ">1 1-&gt;0</text></g><g transform="translate(90,-156) rotate(-60) "><use xlink:href="#side1"/><text fill="rgb(0,0,0)" font-size="14" font-weight="bold" text-anchor="middle" transform="translate(0,-8) ">1 2-&gt;1</text></g><g><g transform="translate(60,0) "><use xlink:href="#side0"/><text fill="rgb(0,0,0)" font-size="14" font-weight="bold" text-anchor="middle" transform="translate(0,-8) ">0 2-&gt;1</text></g><g transform="translate(90,-52) rotate(60) "><use xlink:href="#side0"/><text fill="rgb(0,0,0)" font-size="14" font-weight="bold" text-anchor="middle" transform="translate(0,-8) ">0 0-&gt;1</text></g><g transform="translate(30,-52) rotate(-60) "><use xlink:href="#side0"/><text fill="rgb(0,0,0)" font-size="14" font-weight="bold" text-anchor="middle" transform="translate(0,-8) ">0 2-&gt;0</text></g><g scale=".6" transform="translate(0,20) scale(.6) "><use xlink:href="#tower"/><use transform="translate(0,-12) " xlink:href="#disk2"/><use transform="translate(30,-12) " xlink:href="#disk1"/><use transform="translate(30,-25) " xlink:href="#disk0"/></g><g scale=".6" transform="translate(60,-95) scale(.6) "><use xlink:href="#tower"/><use transform="translate(-30,-12) " xlink:href="#disk0"/><use transform="translate(0,-12) " xlink:href="#disk2"/><use transform="translate(30,-12) " xlink:href="#disk1"/></g><g scale=".6" transform="translate(120,20) scale(.6) "><use xlink:href="#tower"/><use transform="translate(0,-12) " xlink:href="#disk2"/><use transform="translate(0,-25) " xlink:href="#disk0"/><use transform="translate(30,-12) " xlink:href="#disk1"/></g></g><g transform="translate(120,-208) "><g transform="translate(60,0) "><use xlink:href="#side0"/><text fill="rgb(0,0,0)" font-size="14" font-weight="bold" text-anchor="middle" transform="translate(0,-8) ">0 0-&gt;2</text></g><g transform="translate(90,-52) rotate(60) "><use xlink:href="#side0"/><text fill="rgb(0,0,0)" font-size="14" font-weight="bold" text-anchor="middle" transform="translate(0,-8) ">0 1-&gt;2</text></g><g transform="translate(30,-52) rotate(-60) "><use xlink:href="#side0"/><text fill="rgb(0,0,0)" font-size="14" font-weight="bold" text-anchor="middle" transform="translate(0,-8) ">0 0-&gt;1</text></g><g scale=".6" transform="translate(0,20) scale(.6) "><use xlink:href="#tower"/><use transform="translate(-30,-12) " xlink:href="#disk0"/><use transform="translate(0,-12) " xlink:href="#disk2"/><use transform="translate(0,-25) " xlink:href="#disk1"/></g><g scale=".6" transform="translate(60,-95) scale(.6) "><use xlink:href="#tower"/><use transform="translate(0,-12) " xlink:href="#disk2"/><use transform="translate(0,-25) " xlink:href="#disk1"/><use transform="translate(0,-38) " xlink:href="#disk0"/></g><g scale=".6" transform="translate(120,20) scale(.6) "><use xlink:href="#tower"/><use transform="translate(0,-12) " xlink:href="#disk2"/><use transform="translate(0,-25) " xlink:href="#disk1"/><use transform="translate(30,-12) " xlink:href="#disk0"/></g></g><g transform="translate(240,0) "><g transform="translate(60,0) "><use xlink:href="#side0"/><text fill="rgb(0,0,0)" font-size="14" font-weight="bold" text-anchor="middle" transform="translate(0,-8) ">0 1-&gt;0</text></g><g transform="translate(90,-52) rotate(60) "><use xlink:href="#side0"/><text fill="rgb(0,0,0)" font-size="14" font-weight="bold" text-anchor="middle" transform="translate(0,-8) ">0 2-&gt;0</text></g><g transform="translate(30,-52) rotate(-60) "><use xlink:href="#side0"/><text fill="rgb(0,0,0)" font-size="14" font-weight="bold" text-anchor="middle" transform="translate(0,-8) ">0 1-&gt;2</text></g><g scale=".6" transform="translate(0,20) scale(.6) "><use xlink:href="#tower"/><use transform="translate(-30,-12) " xlink:href="#disk1"/><use transform="translate(0,-12) " xlink:href="#disk2"/><use transform="translate(0,-25) " xlink:href="#disk0"/></g><g scale=".6" transform="translate(60,-95) scale(.6) "><use xlink:href="#tower"/><use transform="translate(-30,-12) " xlink:href="#disk1"/><use transform="translate(0,-12) " xlink:href="#disk2"/><use transform="translate(30,-12) " xlink:href="#disk0"/></g><g scale=".6" transform="translate(120,20) scale(.6) "><use xlink:href="#tower"/><use transform="translate(-30,-12) " xlink:href="#disk1"/><use transform="translate(-30,-25) " xlink:href="#disk0"/><use transform="translate(0,-12) " xlink:href="#disk2"/></g></g></g><g transform="translate(480,0) "><g transform="translate(180,0) "><use xlink:href="#side1"/><text fill="rgb(0,0,0)" font-size="14" font-weight="bold" text-anchor="middle" transform="translate(0,-8) ">1 1-&gt;2</text></g><g transform="translate(270,-156) rotate(60) "><use xlink:href="#side1"/><text fill="rgb(0,0,0)" font-size="14" font-weight="bold" text-anchor="middle" transform="translate(0,-8) ">1 0-&gt;2</text></g><g transform="translate(90,-156) rotate(-60) "><use xlink:href="#side1"/><text fill="rgb(0,0,0)" font-size="14" font-weight="bold" text-anchor="middle" transform="translate(0,-8) ">1 1-&gt;0</text></g><g><g transform="translate(60,0) "><use xlink:href="#side0"/><text fill="rgb(0,0,0)" font-size="14" font-weight="bold" text-anchor="middle" transform="translate(0,-8) ">0 1-&gt;0</text></g><g transform="translate(90,-52) rotate(60) "><use xlink:href="#side0"/><text fill="rgb(0,0,0)" font-size="14" font-weight="bold" text-anchor="middle" transform="translate(0,-8) ">0 2-&gt;0</text></g><g transform="translate(30,-52) rotate(-60) "><use xlink:href="#side0"/><text fill="rgb(0,0,0)" font-size="14" font-weight="bold" text-anchor="middle" transform="translate(0,-8) ">0 1-&gt;2</text></g><g scale=".6" transform="translate(0,20) scale(.6) "><use xlink:href="#tower"/><use transform="translate(0,-12) " xlink:href="#disk1"/><use transform="translate(0,-25) " xlink:href="#disk0"/><use transform="translate(30,-12) " xlink:href="#disk2"/></g><g scale=".6" transform="translate(60,-95) scale(.6) "><use xlink:href="#tower"/><use transform="translate(0,-12) " xlink:href="#disk1"/><use transform="translate(30,-12) " xlink:href="#disk2"/><use transform="translate(30,-25) " xlink:href="#disk0"/></g><g scale=".6" transform="translate(120,20) scale(.6) "><use xlink:href="#tower"/><use transform="translate(-30,-12) " xlink:href="#disk0"/><use transform="translate(0,-12) " xlink:href="#disk1"/><use transform="translate(30,-12) " xlink:href="#disk2"/></g></g><g transform="translate(120,-208) "><g transform="translate(60,0) "><use xlink:href="#side0"/><text fill="rgb(0,0,0)" font-size="14" font-weight="bold" text-anchor="middle" transform="translate(0,-8) ">0 2-&gt;1</text></g><g transform="translate(90,-52) rotate(60) "><use xlink:href="#side0"/><text fill="rgb(0,0,0)" font-size="14" font-weight="bold" text-anchor="middle" transform="translate(0,-8) ">0 0-&gt;1</text></g><g transform="translate(30,-52) rotate(-60) "><use xlink:href="#side0"/><text fill="rgb(0,0,0)" font-size="14" font-weight="bold" text-anchor="middle" transform="translate(0,-8) ">0 2-&gt;0</text></g><g scale=".6" transform="translate(0,20) scale(.6) "><use xlink:href="#tower"/><use transform="translate(-30,-12) " xlink:href="#disk1"/><use transform="translate(30,-12) " xlink:href="#disk2"/><use transform="translate(30,-25) " xlink:href="#disk0"/></g><g scale=".6" transform="translate(60,-95) scale(.6) "><use xlink:href="#tower"/><use transform="translate(-30,-12) " xlink:href="#disk1"/><use transform="translate(-30,-25) " xlink:href="#disk0"/><use transform="translate(30,-12) " xlink:href="#disk2"/></g><g scale=".6" transform="translate(120,20) scale(.6) "><use xlink:href="#tower"/><use transform="translate(-30,-12) " xlink:href="#disk1"/><use transform="translate(0,-12) " xlink:href="#disk0"/><use transform="translate(30,-12) " xlink:href="#disk2"/></g></g><g transform="translate(240,0) "><g transform="translate(60,0) "><use xlink:href="#side0"/><text fill="rgb(0,0,0)" font-size="14" font-weight="bold" text-anchor="middle" transform="translate(0,-8) ">0 0-&gt;2</text></g><g transform="translate(90,-52) rotate(60) "><use xlink:href="#side0"/><text fill="rgb(0,0,0)" font-size="14" font-weight="bold" text-anchor="middle" transform="translate(0,-8) ">0 1-&gt;2</text></g><g transform="translate(30,-52) rotate(-60) "><use xlink:href="#side0"/><text fill="rgb(0,0,0)" font-size="14" font-weight="bold" text-anchor="middle" transform="translate(0,-8) ">0 0-&gt;1</text></g><g scale=".6" transform="translate(0,20) scale(.6) "><use xlink:href="#tower"/><use transform="translate(-30,-12) " xlink:href="#disk0"/><use transform="translate(30,-12) " xlink:href="#disk2"/><use transform="translate(30,-25) " xlink:href="#disk1"/></g><g scale=".6" transform="translate(60,-95) scale(.6) "><use xlink:href="#tower"/><use transform="translate(0,-12) " xlink:href="#disk0"/><use transform="translate(30,-12) " xlink:href="#disk2"/><use transform="translate(30,-25) " xlink:href="#disk1"/></g><g scale=".6" transform="translate(120,20) scale(.6) "><use xlink:href="#tower"/><use transform="translate(30,-12) " xlink:href="#disk2"/><use transform="translate(30,-25) " xlink:href="#disk1"/><use transform="translate(30,-38) " xlink:href="#disk0"/></g></g></g></g></g></svg>