<?xml version="1.0" encoding="UTF-8" standalone="no"?><svg xmlns="http://www.w3.org/2000/svg" xmlns:xlink="http://www.w3.org/1999/xlink" height="600px" width="800px"><defs><g id="disk0"><ellipse fill="rgb(184,134,11)" rx="15" ry="7"/><ellipse fill="rgb(255,255,255)" rx="5" ry="6" stroke="rgb(192,192,192)" stroke-width="1"/><text fill="rgb(0,0,0)" font-size="13" font-weight="bold" text-anchor="middle" transform="translate(1,4) ">0</text></g><rect fill="rgb(184,134,11)" height="10" id="side0" rx="3" ry="3" transform="translate(-60,-5) " width="120"/><g id="tower"><rect fill="rgb(192,192,192)" height="79" opacity="0.15" rx="4" ry="4" transform="translate(-51,-67) " width="102"/><rect fill="rgb(255,255,255)" height="75" opacity="0.5" rx="4" ry="4" transform="translate(-48,-65) " width="96"/><rect fill="rgb(0,0,0)" height="60" rx="3" ry="3" transform="translate(-33,-60) " width="6"/><rect fill="rgb(0,0,0)" height="60" rx="3" ry="3" transform="translate(-3,-60) " width="6"/><rect fill="rgb(0,0,0)" height="60" rx="3" ry="3" transform="translate(27,-60) " width="6"/><rect fill="rgb(0,0,0)" height="10" rx="3" ry="3" transform="translate(-45,-5) " width="90"/></g><symbol id="SierpinskiTriangle" viewBox="0 0 200 188"><g font-family="Arial" transform="translate(40,148) "><g><g transform="translate(60,0) "><use xlink:href="#side0"/><text fill="rgb(0,0,0)" font-size="14" font-weight="bold" text-anchor="middle" transform="translate(0,-8) ">0 0-&gt;2</text></g><g transform="translate(90,-52) rotate(60) "><use xlink:href="#side0"/><text fill="rgb(0,0,0)" font-size="14" font-weight="bold" text-anchor="middle" transform="translate(0,-8) ">0 1-&gt;2</text></g><g transform="translate(30,-52) rotate(-60) "><use xlink:href="#side0"/><text fill="rgb(0,0,0)" font-size="14" font-weight="bold" text-anchor="middle" transform="translate(0,-8) ">0 0-&gt;1</text></g><g scale=".6" transform="translate(0,20) scale(.6) "><use xlink:href="#tower"/><use transform="translate(-30,-12) " xlink:href="#disk0"/></g><g scale=".6" transform="translate(60,-95) scale(.6) "><use xlink:href="#tower"/><use transform="translate(0,-12) " xlink:href="#disk0"/></g><g scale=".6" transform="translate(120,20) scale(.6) "><use xlink:href="#tower"/><use transform="translate(30,-12) " xlink:href="#disk0"/></g></g></g></symbol></defs><use height="600" width="800" xlink:href="#SierpinskiTriangle"/></svg>